<svg id="king_x5F_bed" enable-background="new 0 0 300 300" height="512" viewBox="0 0 300 300" width="512" xmlns="http://www.w3.org/2000/svg"><path d="m260 170.868v-.814c0-8.19-4.948-15.226-12-18.337v-63.153-14.226-24.338c0-2.209-1.789-4-4-4s-4 1.791-4 4v19.178c-59.074-15.345-119.576-15.335-180 .029v-19.207c0-2.209-1.789-4-4-4s-4 1.791-4 4v24.338 14.227 63.153c-7.052 3.111-12 10.147-12 18.337v.814c-4.668 1.81-8 6.319-8 11.618v47.027c0 6.884 5.602 12.486 12.488 12.486h3.512v8c0 2.209 1.789 4 4 4h36c2.211 0 4-1.791 4-4v-8h116v8c0 2.209 1.789 4 4 4h36c2.211 0 4-1.791 4-4v-8h3.512c6.887 0 12.488-5.602 12.488-12.486v-47.027c0-5.299-3.332-9.809-8-11.619zm-94.913-20.868c-.11-.207-.164-.432-.314-.623-.355-.447-.773-1.197-.773-2.23v-21.844c0-1.984 1.613-3.6 3.598-3.6h44.805c1.984 0 3.598 1.615 3.598 3.6v21.844c0 1.037-.426 1.791-.781 2.24-.149.188-.203.41-.313.613zm47.315-36.297h-44.805c-6.395 0-11.598 5.203-11.598 11.6v21.844c0 .969.162 1.921.4 2.854h-8.799c.238-.932.399-1.885.399-2.854v-21.844c0-6.396-5.203-11.6-11.598-11.6h-48.803c-6.395 0-11.598 5.203-11.598 11.6v21.844c0 .969.162 1.921.4 2.854h-16.345c-.019 0-.036.006-.055.006v-58.347c60.444-16.146 120.962-16.155 180-.017v58.362c-.019 0-.036-.006-.055-.006h-16.346c.238-.932.401-1.884.401-2.854v-21.844c0-6.395-5.203-11.598-11.598-11.598zm-127.313 36.297c-.112-.209-.167-.437-.32-.629-.352-.445-.77-1.191-.77-2.225v-21.844c0-1.984 1.613-3.6 3.598-3.6h48.805c1.984 0 3.598 1.615 3.598 3.6v21.844c0 1.033-.418 1.783-.773 2.23-.15.191-.204.416-.314.623h-53.824zm154.911-72.6v5.969c-59.072-15.764-119.579-15.754-180 .031v-5.982c60.445-15.705 120.973-15.711 180-.018zm-179.945 80.6h179.891c6.63 0 12.019 5.38 12.049 12h-203.989c.03-6.62 5.419-12 12.049-12zm23.945 88h-28v-4h28zm160 0h-28v-4h28zm16-16.486c0 2.475-2.012 4.486-4.488 4.486h-211.024c-2.477 0-4.488-2.012-4.488-4.486v-7.777h72.344c2.211 0 4-1.791 4-4s-1.789-4-4-4h-72.344v-31.25c0-2.475 2.012-4.486 4.488-4.486h211.023c2.477 0 4.488 2.012 4.488 4.486v47.027z"/><path d="m133.508 213.736h-5.012c-2.211 0-4 1.791-4 4s1.789 4 4 4h5.012c2.211 0 4-1.791 4-4s-1.789-4-4-4z"/><path d="m200.348 131.307c1.562-1.562 1.562-4.096 0-5.658-1.562-1.559-4.094-1.561-5.656.002l-3.613 3.615c-.35.35-.594.76-.787 1.185-.193-.425-.437-.835-.787-1.185l-3.613-3.615c-1.562-1.562-4.094-1.561-5.656-.002-1.562 1.562-1.562 4.096 0 5.658l3.613 3.615c.35.35.76.594 1.185.787-.425.193-.835.437-1.185.787l-3.613 3.613c-1.562 1.562-1.562 4.094 0 5.656.781.781 1.805 1.172 2.828 1.172s2.047-.391 2.828-1.172l3.613-3.613c.35-.35.594-.76.787-1.185.193.425.437.835.787 1.185l3.613 3.613c.781.781 1.805 1.172 2.828 1.172s2.047-.391 2.828-1.172c1.562-1.562 1.562-4.094 0-5.656l-3.613-3.613c-.35-.35-.76-.594-1.185-.787.425-.193.835-.437 1.185-.787zm-10.057 6.374c-.193-.425-.437-.835-.787-1.185s-.76-.594-1.185-.787c.425-.193.835-.437 1.185-.785.35-.35.594-.76.787-1.185.193.425.437.835.787 1.185.35.349.76.593 1.185.785-.425.193-.835.437-1.185.787s-.594.76-.787 1.185z"/><path d="m120.348 131.307c1.562-1.562 1.562-4.096 0-5.658-1.562-1.559-4.094-1.561-5.656.002l-3.613 3.615c-.35.35-.594.76-.787 1.185-.193-.425-.437-.835-.787-1.185l-3.613-3.615c-1.562-1.562-4.094-1.561-5.656-.002-1.562 1.562-1.562 4.096 0 5.658l3.613 3.615c.35.35.76.594 1.185.787-.425.193-.835.437-1.185.787l-3.613 3.613c-1.562 1.562-1.562 4.094 0 5.656.781.781 1.805 1.172 2.828 1.172s2.047-.391 2.828-1.172l3.613-3.613c.35-.35.594-.76.787-1.185.193.425.437.835.787 1.185l3.613 3.613c.781.781 1.805 1.172 2.828 1.172s2.047-.391 2.828-1.172c1.562-1.562 1.562-4.094 0-5.656l-3.613-3.613c-.35-.35-.76-.594-1.185-.787.425-.193.835-.437 1.185-.787zm-10.057 6.374c-.193-.425-.437-.835-.787-1.185s-.76-.594-1.185-.787c.425-.193.835-.437 1.185-.785.35-.35.594-.76.787-1.185.193.425.437.835.787 1.185.35.349.76.593 1.185.785-.425.193-.835.437-1.185.787s-.594.76-.787 1.185z"/></svg>