<?xml version="1.0" encoding="iso-8859-1"?>
<!-- Generator: Adobe Illustrator 16.0.0, SVG Export Plug-In . SVG Version: 6.00 Build 0)  -->
<!DOCTYPE svg PUBLIC "-//W3C//DTD SVG 1.1//EN" "http://www.w3.org/Graphics/SVG/1.1/DTD/svg11.dtd">
<svg version="1.1" id="Capa_1" xmlns="http://www.w3.org/2000/svg" xmlns:xlink="http://www.w3.org/1999/xlink" x="0px" y="0px"
	 width="190.378px" height="190.379px" viewBox="0 0 190.378 190.379" style="enable-background:new 0 0 190.378 190.379;"
	 xml:space="preserve">
<g>
	<path d="M151.147,76.109c-2.461,0-4.469,2.004-4.469,4.477v25.734c0,6.608-4.801,12.094-11.101,13.2
		c-1.41-3.65-6.456-6.195-13.533-6.195h-19.953l0.269-2.605c0.104-1.134,0.16-2.199,0.16-3.281h19.524
		c9.854,0,17.244-8.027,16.431-17.839l-5.987-71.755C131.667,8.031,122.942,0,113.083,0h-35.81C67.416,0,58.703,8.031,57.87,17.843
		l-5.983,71.755c-0.816,9.812,6.57,17.839,16.426,17.839h19.528c0,1.058,0.046,2.147,0.166,3.281l0.269,2.605H68.319
		c-7.067,0-12.12,2.545-13.527,6.195c-6.29-1.118-11.101-6.592-11.101-13.2V80.593c0-2.473-2.001-4.478-4.472-4.478
		c-2.467,0-4.471,2.005-4.471,4.478v25.734c0,12.343,10.035,22.405,22.39,22.405h1.227c4.374,3.768,11.688,6.42,18.917,6.42h13.183
		l2.38,23.796H81.053c-10.928,0-21.684,6.14-24.494,13.974l-3.296,9.21c-2.553,0.336-4.53,1.976-4.53,4.047
		c0,2.316,2.448,4.2,5.454,4.2c3.009,0,5.458-1.884,5.458-4.2c0-1.29-0.793-2.376-1.956-3.138l3.076-8.607
		c2.138-5.979,11.423-11.001,20.277-11.001h11.91v18.951c-1.883,0.657-3.21,2.101-3.21,3.795c0,2.316,2.451,4.2,5.448,4.2
		c2.997,0,5.458-1.863,5.458-4.2c0-1.703-1.335-3.138-3.222-3.795v-18.951h11.914c8.848,0,18.142,5.046,20.27,11.001l3.082,8.607
		c-1.163,0.77-1.96,1.848-1.96,3.138c0,2.316,2.452,4.2,5.458,4.2s5.458-1.884,5.458-4.2c0-2.071-1.972-3.711-4.532-4.047
		l-3.294-9.21c-2.813-7.85-13.577-13.974-24.493-13.974H97.527l2.385-23.796H113.1c7.222,0,14.551-2.652,18.903-6.42h1.226
		c12.343,0,22.401-10.043,22.401-22.405V80.593C155.615,78.121,153.607,76.109,151.147,76.109z M73.499,33.576h43.356
		c1.242,0,2.24,0.996,2.24,2.238c0,1.23-0.998,2.238-2.24,2.238H73.499c-1.238,0-2.234-1.008-2.234-2.238
		C71.265,34.58,72.26,33.576,73.499,33.576z M73.499,47.007h43.356c1.242,0,2.24,1,2.24,2.238c0,1.234-0.998,2.238-2.24,2.238
		H73.499c-1.238,0-2.234-1.004-2.234-2.238C71.265,48.023,72.26,47.007,73.499,47.007z M73.499,64.93
		c-1.238,0-2.234-1.004-2.234-2.238c0-1.238,0.996-2.234,2.234-2.234h43.356c1.242,0,2.24,0.996,2.24,2.234
		c0,1.234-0.998,2.238-2.24,2.238H73.499z"/>
</g>
<g>
</g>
<g>
</g>
<g>
</g>
<g>
</g>
<g>
</g>
<g>
</g>
<g>
</g>
<g>
</g>
<g>
</g>
<g>
</g>
<g>
</g>
<g>
</g>
<g>
</g>
<g>
</g>
<g>
</g>
</svg>
